<svg width="128" height="128" viewBox="0 0 128 128" fill="none" xmlns="http://www.w3.org/2000/svg">
<path d="M64 117.333C93.3333 117.333 117.333 93.3332 117.333 63.9998C117.333 34.6665 93.3333 10.6665 64 10.6665C34.6666 10.6665 10.6666 34.6665 10.6666 63.9998C10.6666 93.3332 34.6666 117.333 64 117.333Z" stroke="#4AD295" stroke-width="1.5" stroke-linecap="round" stroke-linejoin="round"/>
<path d="M64.4492 44.4737L64.4496 44.4596V44.4454C64.4496 42.1876 66.3935 39 70.3443 39C71.8531 39 72.8866 39.5041 73.5473 40.2091C74.2196 40.9263 74.5878 41.9396 74.5878 43.0882C74.5878 45.8952 72.0334 48.6194 68.5991 48.6194C67.1379 48.6194 66.1098 48.1924 65.458 47.5365C64.809 46.8835 64.4094 45.8793 64.4492 44.4737ZM57.7056 81.0879L57.7078 81.0791L57.71 81.0702L60.8746 67.8406C61.1427 66.8091 61.3365 65.9567 61.3511 65.3454C61.3582 65.0499 61.3326 64.6256 61.0917 64.2539C60.7906 63.7893 60.3148 63.6318 59.9043 63.6318C59.5154 63.6318 58.9924 63.7778 58.5214 63.9327C58.0011 64.1039 57.3812 64.3433 56.7295 64.6248C55.7527 65.0467 54.6674 65.5794 53.7077 66.1457L53.2996 65.4678C56.3983 62.938 59.675 60.9183 62.5808 59.5094C65.7343 57.9804 68.3219 57.2338 69.7417 57.2338C70.2172 57.2338 70.502 57.3694 70.6964 57.5546C70.9087 57.7568 71.1121 58.1138 71.2306 58.7174C71.4728 59.9512 71.2926 61.8695 70.6156 64.3705L70.6156 64.3705L70.6132 64.3795L66.9846 78.2943C66.6574 79.5473 66.5212 80.5311 66.6168 81.2521C66.6656 81.6198 66.7879 82.0256 67.0807 82.3504C67.4029 82.7077 67.8262 82.8516 68.2287 82.8516C68.591 82.8516 69.033 82.7503 69.4702 82.6138C69.9322 82.4697 70.4741 82.2587 71.0645 81.9835C72.013 81.5414 73.1109 80.9222 74.231 80.1197L74.6818 80.7291C71.6871 83.635 68.6029 85.6746 65.9342 87.003C63.0523 88.4375 60.7433 89 59.5887 89C58.9915 89 58.5177 88.9068 58.157 88.7252C57.8183 88.5548 57.5286 88.2822 57.3165 87.8095C56.8564 86.7845 56.7492 84.7871 57.7056 81.0879Z" stroke="#4AD295" stroke-width="2"/>
</svg>
